<?xml version="1.0" encoding="utf-8"?>
<svg xmlns="http://www.w3.org/2000/svg" viewBox="-16.833 8.685 366.022 491.315" width="366.022px" height="491.315px"><path d="M 184.779 9.464 C 190.719 9.464 196.659 9.464 202.779 9.464 C 204.649 11.334 204.169 14.044 204.379 16.554 C 205.479 29.474 207.799 41.814 213.779 53.464 C 214.179 54.294 214.579 55.114 214.979 55.964 C 224.369 74.494 240.409 89.474 255.949 102.874 C 258.639 105.204 261.239 107.614 263.849 110.024 C 267.039 112.974 270.239 115.884 273.599 118.654 C 276.699 121.274 279.289 124.194 281.909 127.294 C 283.199 128.784 284.519 130.244 285.869 131.674 C 292.489 138.684 297.709 146.314 302.779 154.464 C 303.139 155.044 303.499 155.624 303.879 156.214 C 325.119 190.804 331.489 229.014 322.239 268.514 C 317.069 289.124 308.099 311.434 293.779 327.466 C 291.599 328.341 291.599 328.341 289.779 328.466 C 289.449 328.136 289.119 327.806 288.779 327.466 C 289.189 322.124 290.759 317.814 293.029 313.034 C 307.429 281.374 310.499 245.744 298.499 212.844 C 292.089 196.134 282.659 181.914 269.779 169.464 C 264.779 164.464 264.779 164.464 263.299 162.804 C 256.989 156.004 249.399 150.984 241.759 145.804 C 240.129 144.704 238.519 143.584 236.899 142.454 C 226.369 135.374 214.419 130.444 202.779 125.464 C 202.789 126.394 202.789 126.394 202.789 127.344 C 202.879 164.154 202.949 200.964 202.989 237.774 C 202.989 242.204 202.999 246.624 202.999 251.054 C 203.009 251.934 203.009 252.814 203.009 253.724 C 203.019 267.964 203.059 282.204 203.089 296.444 C 203.129 311.074 203.149 325.7 203.159 340.327 C 203.169 349.343 203.179 358.359 203.219 367.376 C 203.239 373.569 203.239 379.763 203.239 385.956 C 203.239 389.523 203.28 423.525 203.3 427.092 C 203.46 454.307 157.262 424.552 155.542 412.936 C 154.492 393.307 178.46 396.068 186.2 400.997 C 186.7 221.315 184.279 192.784 184.779 9.464 Z" fill="#000000" style="stroke-width: 1;"/><ellipse style="stroke: rgb(0, 0, 0); transform-box: fill-box; transform-origin: 50% 50%;" cx="95.681" cy="446.48" rx="99.773" ry="52.24" transform="matrix(0.984808, -0.173648, 0.173648, 0.984808, 8.274731, -5.419727)"/></svg>