<?xml version="1.0" encoding="utf-8"?>
<svg xmlns="http://www.w3.org/2000/svg" viewBox="-16.833 8.685 366.022 491.315" xmlns:bx="https://boxy-svg.com" width="366.022px" height="491.315px"><defs><bx:export><bx:file format="svg"/></bx:export></defs><path d="M 152.582 69.639 C 158.522 69.639 164.462 69.639 170.582 69.639 C 172.452 71.509 170.752 261.139 170.792 297.949 C 170.792 302.379 170.802 306.799 170.802 311.229 C 170.812 312.109 170.812 312.989 170.812 313.899 C 170.822 328.139 170.862 342.379 170.892 356.619 C 170.932 371.249 170.952 385.875 170.962 400.502 C 170.972 409.518 170.982 418.534 171.022 427.551 C 171.042 433.744 171.042 439.938 171.042 446.131 C 171.042 449.698 171.083 483.7 171.103 487.267 C 171.263 514.482 125.065 484.727 123.345 473.111 C 122.295 453.482 146.263 456.243 154.003 461.172 C 154.503 281.49 152.082 252.959 152.582 69.639 Z" fill="#000000" style="stroke-width: 1; transform-box: fill-box; transform-origin: 50% 50%;" transform="matrix(-1, 0, 0, -1, -0.000072, 0.000031)"/><ellipse style="stroke: rgb(0, 0, 0); paint-order: stroke; fill-rule: nonzero; stroke-width: 0px; transform-box: fill-box; transform-origin: 50% 50%;" cx="95.681" cy="446.48" rx="99.773" ry="52.24" transform="matrix(0.984808, -0.173648, 0.173648, 0.984808, 127.019825, -380.741497)"/></svg>