<?xml version="1.0" encoding="utf-8"?>
<svg xmlns="http://www.w3.org/2000/svg" viewBox="-16.833 8.685 366.022 491.315" width="366.022px" height="491.315px"><path d="M 118.637 73.479 C 124.577 73.479 130.517 73.479 136.637 73.479 C 138.507 75.349 136.807 264.979 136.847 301.789 C 136.847 306.219 136.857 310.639 136.857 315.069 C 136.867 315.949 136.867 316.829 136.867 317.739 C 136.877 331.979 136.917 346.219 136.947 360.459 C 136.987 375.089 137.007 389.715 137.017 404.342 C 137.027 413.358 137.037 422.374 137.077 431.391 C 137.097 437.584 137.097 443.778 137.097 449.971 C 137.097 453.538 137.138 487.54 137.158 491.107 C 137.318 518.322 112.318 460.083 120.058 465.012 C 120.558 285.33 118.137 256.799 118.637 73.479 Z" fill="#000000" style="stroke-width: 1; transform-box: fill-box; transform-origin: 50% 50%;" transform="matrix(-1, 0, 0, -1, 0.000081, 0.000063)"/><ellipse style="stroke: rgb(0, 0, 0); paint-order: stroke; fill-rule: nonzero; fill: none; stroke-width: 15px; transform-box: fill-box; transform-origin: 50% 50%;" cx="95.681" cy="446.48" rx="99.773" ry="52.24" transform="matrix(0.984808, -0.173648, 0.173648, 0.984808, 129.020237, -374.740276)"/></svg>