<?xml version="1.0" encoding="utf-8"?>
<svg xmlns="http://www.w3.org/2000/svg" viewBox="-16.833 8.685 366.022 491.315" xmlns:bx="https://boxy-svg.com" width="366.022px" height="491.315px"><defs><bx:export><bx:file format="svg"/></bx:export></defs><path d="M 205.59 11.227 C 211.53 11.227 217.47 11.227 223.59 11.227 C 225.46 13.097 223.76 202.727 223.8 239.537 C 223.8 243.967 223.81 248.387 223.81 252.817 C 223.82 253.697 223.82 254.577 223.82 255.487 C 223.83 269.727 223.87 283.967 223.9 298.207 C 223.94 312.837 223.96 327.463 223.97 342.09 C 223.98 351.106 223.99 360.122 224.03 369.139 C 224.05 375.332 224.05 381.526 224.05 387.719 C 224.05 391.286 224.091 425.288 224.111 428.855 C 224.271 456.07 199.271 397.831 207.011 402.76 C 207.511 223.078 205.09 194.547 205.59 11.227 Z" fill="#000000" style="stroke-width: 1; transform-box: fill-box; transform-origin: 50% 50%;"/><ellipse style="stroke: rgb(0, 0, 0); paint-order: stroke; fill-rule: nonzero; stroke-width: 15px; transform-box: fill-box; transform-origin: 50% 50%;" cx="95.681" cy="446.48" rx="99.773" ry="52.24" transform="matrix(0.984808, -0.173648, 0.173648, 0.984808, 23.397221, -9.791469)"/><rect x="-11.016" y="435.453" width="257.828" height="8.678" style="stroke: rgb(0, 0, 0);"/></svg>