<?xml version="1.0" encoding="utf-8"?>
<svg xmlns="http://www.w3.org/2000/svg" viewBox="-16.833 8.685 366.022 491.315" xmlns:bx="https://boxy-svg.com" width="366.022px" height="491.315px"><defs><bx:export><bx:file format="svg"/></bx:export></defs><path d="M 205.59 13.227 C 211.53 13.227 217.47 13.227 223.59 13.227 C 225.46 15.097 223.76 204.727 223.8 241.537 C 223.8 245.967 223.81 250.387 223.81 254.817 C 223.82 255.697 223.82 256.577 223.82 257.487 C 223.83 271.727 223.87 285.967 223.9 300.207 C 223.94 314.837 223.96 329.463 223.97 344.09 C 223.98 353.106 223.99 362.122 224.03 371.139 C 224.05 377.332 224.05 383.526 224.05 389.719 C 224.05 393.286 221.962 401.157 221.982 404.724 C 222.142 431.939 199.04 398.063 206.78 402.992 C 207.28 223.31 205.09 196.547 205.59 13.227 Z" fill="#000000" style="stroke-width: 1; transform-box: fill-box; transform-origin: 50% 50%;"/><ellipse style="stroke: rgb(0, 0, 0); paint-order: stroke; fill-rule: nonzero; stroke-width: 15px; transform-box: fill-box; transform-origin: 50% 50%;" cx="95.681" cy="446.48" rx="99.773" ry="52.24" transform="matrix(0.965926, -0.258819, 0.258819, 0.965926, 22.01105, -17.196706)"/><rect x="-11.016" y="439.453" width="257.828" height="8.678" style="stroke: rgb(0, 0, 0);"/><path d="M 206.516 20.978 C 212.111 20.978 217.706 20.978 223.469 20.978 C 225.226 22.735 224.77 25.291 224.972 27.647 C 226.013 39.822 228.193 51.442 233.829 62.415 C 234.201 63.192 234.574 63.967 234.958 64.766 C 243.796 82.215 258.901 96.329 273.54 108.952 C 276.071 111.143 278.52 113.413 280.977 115.687 C 283.983 118.462 287.001 121.204 290.16 123.809 C 293.078 126.276 295.526 129.026 297.992 131.942 C 299.2 133.349 300.448 134.722 301.722 136.069 C 307.949 142.669 312.867 149.859 317.647 157.536 C 317.987 158.081 318.325 158.624 318.674 159.185 C 338.681 191.757 344.68 227.738 335.974 264.944 C 331.095 284.355 322.648 305.361 309.171 320.464 C 307.112 321.288 307.112 321.288 305.405 321.406 C 305.093 321.095 304.783 320.784 304.463 320.464 C 304.842 315.43 306.323 311.37 308.466 306.867 C 322.021 277.053 324.916 243.502 313.613 212.512 C 307.576 196.779 298.697 183.381 286.569 171.663 C 281.86 166.953 281.86 166.953 280.459 165.387 C 274.516 158.983 267.372 154.256 260.177 149.381 C 258.644 148.34 257.123 147.286 255.604 146.227 C 245.683 139.55 234.43 134.914 223.469 130.224 C 223.471 131.1 223.471 131.1 223.475 131.996 C 223.558 166.661 206.041 193.619 206.516 20.978 Z" fill="#000000" style="stroke-width: 1;"/></svg>