<?xml version="1.0" encoding="utf-8"?>
<svg xmlns="http://www.w3.org/2000/svg" viewBox="-16.833 8.685 366.022 491.315" xmlns:bx="https://boxy-svg.com" width="366.022px" height="491.315px"><defs><bx:export><bx:file format="svg"/></bx:export></defs><path d="M 184.779 9.464 C 190.719 9.464 196.659 9.464 202.779 9.464 C 204.649 11.334 202.949 200.964 202.989 237.774 C 202.989 242.204 202.999 246.624 202.999 251.054 C 203.009 251.934 203.009 252.814 203.009 253.724 C 203.019 267.964 203.059 282.204 203.089 296.444 C 203.129 311.074 203.149 325.7 203.159 340.327 C 203.169 349.343 203.179 358.359 203.219 367.376 C 203.239 373.569 203.239 379.763 203.239 385.956 C 203.239 389.523 203.28 423.525 203.3 427.092 C 203.46 454.307 157.262 424.552 155.542 412.936 C 154.492 393.307 178.46 396.068 186.2 400.997 C 186.7 221.315 184.279 192.784 184.779 9.464 Z" fill="#000000" style="stroke-width: 1;"/><ellipse style="stroke: rgb(0, 0, 0); transform-box: fill-box; transform-origin: 50% 50%;" cx="95.681" cy="446.48" rx="99.773" ry="52.24" transform="matrix(0.984808, -0.173648, 0.173648, 0.984808, 8.274731, -5.419727)"/></svg>